<?xml version="1.0" encoding="UTF-8" standalone="no"?>
<!-- Generator: Adobe Illustrator 26.4.1, SVG Export Plug-In . SVG Version: 6.00 Build 0)  -->

<svg
   xmlns:dc="http://purl.org/dc/elements/1.1/"
   xmlns:cc="http://creativecommons.org/ns#"
   xmlns:rdf="http://www.w3.org/1999/02/22-rdf-syntax-ns#"
   xmlns:svg="http://www.w3.org/2000/svg"
   xmlns="http://www.w3.org/2000/svg"
   xmlns:sodipodi="http://sodipodi.sourceforge.net/DTD/sodipodi-0.dtd"
   xmlns:inkscape="http://www.inkscape.org/namespaces/inkscape"
   version="1.1"
   id="MPIEA-EN"
   x="0px"
   y="0px"
   width="66.019997"
   height="66.019997"
   viewBox="0 0 66.019997 66.019997"
   xml:space="preserve"
   sodipodi:docname="max-planck.svg"
   inkscape:version="0.92.5 (2060ec1f9f, 2020-04-08)"><metadata
   id="metadata158"><rdf:RDF><cc:Work
       rdf:about=""><dc:format>image/svg+xml</dc:format><dc:type
         rdf:resource="http://purl.org/dc/dcmitype/StillImage" /><dc:title></dc:title></cc:Work></rdf:RDF></metadata><defs
   id="defs156" /><sodipodi:namedview
   pagecolor="#ffffff"
   bordercolor="#666666"
   borderopacity="1"
   objecttolerance="10"
   gridtolerance="10"
   guidetolerance="10"
   inkscape:pageopacity="0"
   inkscape:pageshadow="2"
   inkscape:window-width="1920"
   inkscape:window-height="1012"
   id="namedview154"
   showgrid="false"
   fit-margin-top="0"
   fit-margin-left="0"
   fit-margin-right="0"
   fit-margin-bottom="0"
   inkscape:zoom="3.3454545"
   inkscape:cx="74.584025"
   inkscape:cy="58.099631"
   inkscape:window-x="0"
   inkscape:window-y="0"
   inkscape:window-maximized="1"
   inkscape:current-layer="MPIEA-EN" />
<style
   type="text/css"
   id="style2">
	.st0{fill:#006C66;}
	.st1{opacity:0.3;}
	.st2{display:none;opacity:0.4;}
	.st3{display:inline;fill:#006C66;}
	.st4{opacity:0.5;}
	.st5{opacity:0.45;}
</style>

<g
   id="ae-Logo"
   transform="matrix(0.83641316,0,0,0.83641316,-76.544039,-14.823827)">
	<g
   id="g104">
		<g
   id="PfefferMdiaeval_00000156586739441112952290000002357711778083898770_"
   class="st1"
   style="opacity:0.3">
			<path
   class="st0"
   d="m 151.41,51.36 c 0.18,0 0.29,0.12 0.29,0.18 0,0.29 -0.88,0.76 -2.06,1.23 l -15.4,6 c 0.29,1.06 0.59,2.12 0.94,3.12 1.35,4.17 5,7.11 8.53,7.11 1.94,0 3,-0.65 4.41,-1.94 0.65,-0.59 3.18,-1.59 4.41,-1.59 0.29,0 0.41,0.06 0.41,0.12 0,0.12 -0.06,0.18 -0.18,0.29 -2.23,2.12 -7.7,5.23 -13.17,5.23 -3.18,0 -6.11,-1.71 -7.94,-4.35 -3.7,2.23 -8.29,4.35 -12.52,4.35 -2.12,0 -4,-0.65 -4,-3.29 0,-1.47 0.76,-2.88 1.47,-4.06 2.59,-4.23 6.35,-8.35 10.29,-11.58 -1.12,-3.29 -3.82,-5.17 -7,-5.17 l -1.12,0.06 c -0.24,0 -0.35,0 -0.35,-0.12 0,-1.06 4.53,-1.94 5.64,-1.94 3.12,0 5.59,1.18 7.06,3.7 2.35,-2.23 6.41,-3.7 9.58,-3.7 2.06,0 4.12,0.65 5.94,2.29 1.53,1.41 2.35,3.47 4.59,4.06 z m -23.76,3.18 c -3.35,3.47 -7.47,8.11 -7.47,11.7 0,2.12 1.23,2.88 2.76,2.88 2.88,0 7,-2.53 7.88,-3.82 -1,-2.12 -1.71,-4.64 -2.18,-6.88 -0.28,-1.3 -0.63,-2.59 -0.99,-3.88 z m 14.06,-5.3 c -1.59,-1.35 -3.35,-2.18 -5.12,-2.18 h -0.35 c -1.76,1.23 -2.94,3.47 -2.94,6.23 0,1.53 0.23,2.94 0.65,4.41 l 11.82,-4.59 c -2.01,-0.81 -2.54,-2.51 -4.06,-3.87 z"
   id="path89"
   inkscape:connector-curvature="0"
   style="fill:#006c66" />
		</g>
		<g
   id="Centaur_00000111899924277226682680000012539427987250025886_"
   class="st2"
   style="display:none;opacity:0.4">
			<path
   class="st3"
   d="m 113.96,51.27 c -0.24,-0.73 -0.57,-1.53 -0.57,-2.26 0,-2.75 7.59,-7.03 12.12,-7.03 2.91,0 5.09,2.91 6.22,4.28 4.36,-4.04 5.82,-4.36 7.76,-4.36 4.77,0 9.45,3.15 11.07,8.72 0.16,0.73 0.32,0.97 1.45,1.37 v 1.21 c -3.72,0.48 -14.62,2.42 -19.63,4.04 -0.08,10.58 8.48,12.36 10.58,12.36 1.53,0 3.39,-0.89 5.01,-1.86 1.78,-1.13 1.94,-1.29 2.26,-1.29 0.57,0 0.73,0.57 0.73,0.81 0,1.05 -6.3,5.41 -12.36,5.41 -4.69,0 -7.67,-3.07 -8.97,-5.49 -6.22,3.55 -9.13,5.17 -13.09,5.17 -3.55,0 -4.93,-2.1 -4.93,-5.33 0,-1.62 0.4,-3.55 1.29,-5.33 3.07,-1.37 7.43,-3.31 14.7,-4.36 v -3.31 c 0,-5.09 -0.89,-6.06 -1.45,-6.71 -1.13,-1.37 -3.07,-2.26 -4.44,-2.26 -3.07,0 -3.31,1.45 -3.31,2.5 0,0.65 0.16,1.29 0.32,1.78 z m 14.95,14.46 c -0.48,-1.37 -0.73,-2.18 -1.05,-5.82 -0.81,-0.08 -1.62,-0.08 -2.34,-0.08 -6.46,0 -9.13,2.42 -9.13,5.66 0,0.97 0.4,4.12 3.23,4.12 1.13,0 2.59,-0.24 5.17,-1.62 z m 16.15,-13.17 c 0.48,-0.08 1.05,-0.4 1.05,-0.89 0,-1.37 -2.5,-7.35 -8.24,-7.35 -2.75,0 -5.57,3.72 -5.49,10.99 z"
   id="path92"
   inkscape:connector-curvature="0"
   style="display:inline;fill:#006c66" />
		</g>
		<g
   id="Garamond_00000139976967135835211630000008732191375434593666_"
   class="st1"
   style="opacity:0.3">
			<path
   class="st0"
   d="m 132.26,47.39 c 0.9,-0.97 2.16,-1.85 3.79,-2.66 1.62,-0.81 3.14,-1.21 4.55,-1.21 2.79,0 5.12,0.95 7,2.83 1.88,1.89 2.83,4.25 2.85,7.09 L 136.03,53.3 c -1.11,0 -2.11,0.06 -3.01,0.17 -0.09,0.74 -0.14,2.7 -0.14,5.88 0,2.3 0.33,4.11 0.99,5.41 0.66,1.3 1.79,2.49 3.41,3.58 1.06,0.69 2.44,1.04 4.15,1.04 1.43,0 2.7,-0.22 3.82,-0.67 1.12,-0.45 2.4,-1.27 3.85,-2.47 l 1.31,-1.11 c 0.25,0.35 0.38,0.68 0.38,1 0,0.32 -0.03,0.68 -0.1,1.07 -1.01,1.11 -2.18,2.14 -3.49,3.11 -0.95,0.67 -2.37,1.31 -4.29,1.94 -1.22,0.39 -2.74,0.59 -4.56,0.59 -1.34,0 -2.85,-0.41 -4.53,-1.24 -1.68,-0.83 -3.32,-2.33 -4.91,-4.49 -2.3,1.96 -3.69,3.1 -4.15,3.42 -1.15,0.81 -2.34,1.43 -3.56,1.87 -0.9,0.35 -1.82,0.52 -2.77,0.52 -1.2,0 -2.21,-0.39 -3.04,-1.18 -0.83,-0.78 -1.24,-1.62 -1.24,-2.52 0,-1.11 0.16,-2.1 0.47,-2.97 0.31,-0.88 0.78,-1.7 1.4,-2.47 0.62,-0.77 1.44,-1.53 2.45,-2.26 0.53,-0.39 2.49,-1.57 5.88,-3.53 1.43,-0.83 2.8,-1.56 4.11,-2.18 l 0.17,-1.59 v -3.08 c 0.02,-1.75 -0.5,-3.24 -1.56,-4.46 -0.76,-0.88 -1.86,-1.31 -3.28,-1.31 -1.13,0 -2.16,0.43 -3.08,1.28 -0.95,0.85 -1.6,2.13 -1.97,3.82 -0.37,1.69 -0.74,2.83 -1.11,3.41 -0.21,0.3 -0.65,0.59 -1.31,0.86 l -1.66,0.62 c -0.28,0 -0.52,-0.11 -0.73,-0.33 -0.21,-0.22 -0.31,-0.5 -0.31,-0.85 0,-0.55 0.4,-1.67 1.21,-3.35 0.81,-1.68 1.76,-3.04 2.85,-4.08 1.09,-1.04 2.25,-1.83 3.46,-2.37 1.21,-0.54 2.4,-0.81 3.58,-0.81 1.66,0 3.06,0.3 4.2,0.9 1.15,0.58 2.26,1.56 3.34,2.92 z m -3.8,17.56 c 0.02,-0.55 0.03,-0.89 0.03,-1 l -0.03,-3.18 v -2.28 c 0,-0.12 -0.01,-0.45 -0.03,-1 -1.22,0.46 -2.83,1.34 -4.84,2.63 -2.01,1.29 -3.31,2.4 -3.92,3.32 -0.61,0.92 -0.92,1.88 -0.92,2.87 0,0.92 0.33,1.72 0.99,2.39 0.66,0.67 1.42,1 2.3,1 0.58,0 1.26,-0.22 2.06,-0.67 0.8,-0.45 1.83,-1.24 3.09,-2.37 0.52,-0.5 0.95,-1.06 1.27,-1.71 z m 4.77,-13.14 c 0.64,0.07 1.04,0.1 1.18,0.1 l 2.73,-0.1 c 0.3,0 0.93,0.02 1.9,0.05 0.97,0.03 2.11,0.05 3.42,0.05 1.27,0 2.12,-0.16 2.56,-0.47 0.44,-0.31 0.66,-0.71 0.66,-1.19 0,-1.27 -0.55,-2.45 -1.64,-3.54 -1.09,-1.09 -2.37,-1.64 -3.82,-1.64 -1.8,0 -3.42,0.73 -4.86,2.2 -1.44,1.46 -2.16,2.9 -2.16,4.3 z"
   id="path95"
   inkscape:connector-curvature="0"
   style="fill:#006c66" />
		</g>
		<g
   id="Roboto_00000070805512419338717720000002169264764639083706_"
   class="st4"
   style="opacity:0.5">
			<path
   class="st0"
   d="m 141.22,72.84 c -2.51,0 -4.66,-0.49 -6.45,-1.47 -1.79,-0.98 -3.23,-2.35 -4.32,-4.1 -0.4,0.65 -0.93,1.31 -1.6,1.97 -0.67,0.67 -1.48,1.27 -2.45,1.8 -0.96,0.53 -2.07,0.96 -3.31,1.3 -1.24,0.34 -2.64,0.5 -4.19,0.5 -1.55,0 -2.92,-0.2 -4.11,-0.6 -1.19,-0.4 -2.19,-0.96 -3,-1.7 -0.81,-0.74 -1.43,-1.63 -1.85,-2.68 -0.42,-1.05 -0.64,-2.21 -0.64,-3.49 0,-1.41 0.25,-2.67 0.76,-3.8 0.5,-1.13 1.26,-2.09 2.26,-2.89 1,-0.8 2.24,-1.42 3.72,-1.84 1.48,-0.42 3.19,-0.64 5.14,-0.64 h 6.95 v -2.38 c 0,-2.38 -0.57,-4.24 -1.72,-5.57 -1.15,-1.33 -2.85,-2 -5.13,-2 -1.24,0 -2.36,0.17 -3.35,0.5 -0.99,0.33 -1.84,0.78 -2.53,1.35 -0.69,0.57 -1.22,1.24 -1.58,2.02 -0.36,0.78 -0.54,1.61 -0.54,2.49 l -3.22,-0.35 c 0,-1.26 0.27,-2.43 0.8,-3.5 0.53,-1.07 1.29,-2 2.27,-2.77 0.98,-0.78 2.16,-1.38 3.54,-1.83 1.38,-0.44 2.92,-0.66 4.61,-0.66 2.25,0 4.18,0.48 5.78,1.45 1.6,0.96 2.76,2.4 3.48,4.32 1.08,-1.8 2.48,-3.21 4.18,-4.23 1.7,-1.02 3.6,-1.53 5.7,-1.53 1.82,0 3.44,0.29 4.87,0.88 1.42,0.59 2.62,1.42 3.6,2.5 0.97,1.08 1.71,2.4 2.22,3.95 0.5,1.55 0.76,3.29 0.76,5.22 v 2.71 h -20.48 v 0.78 c 0,1.61 0.19,3.11 0.57,4.52 0.38,1.41 0.97,2.63 1.77,3.68 0.8,1.05 1.82,1.87 3.06,2.48 1.24,0.6 2.72,0.91 4.45,0.91 1.01,0 1.94,-0.09 2.8,-0.27 0.86,-0.18 1.65,-0.42 2.37,-0.72 0.72,-0.3 1.38,-0.64 1.97,-1.01 0.6,-0.38 1.14,-0.78 1.62,-1.19 l 1.27,2.35 c -0.4,0.36 -0.88,0.75 -1.46,1.18 -0.58,0.42 -1.27,0.81 -2.08,1.16 -0.81,0.35 -1.75,0.65 -2.83,0.88 -1.09,0.2 -2.31,0.32 -3.68,0.32 z m -21.84,-2.7 c 0.94,0 1.85,-0.13 2.75,-0.38 0.89,-0.25 1.73,-0.58 2.5,-0.99 0.78,-0.41 1.47,-0.86 2.07,-1.37 0.6,-0.5 1.08,-1 1.42,-1.49 V 57.8 h -6.9 c -1.46,0 -2.73,0.18 -3.81,0.54 -1.08,0.36 -1.98,0.85 -2.71,1.46 -0.72,0.61 -1.26,1.33 -1.61,2.14 -0.35,0.81 -0.53,1.66 -0.53,2.54 0,0.85 0.14,1.62 0.43,2.31 0.29,0.69 0.72,1.29 1.29,1.79 0.57,0.5 1.28,0.88 2.12,1.15 0.85,0.27 1.85,0.41 2.98,0.41 z m 21.02,-24.9 c -1.28,0 -2.44,0.25 -3.48,0.76 -1.04,0.51 -1.93,1.19 -2.69,2.07 -0.76,0.88 -1.37,1.91 -1.84,3.11 -0.47,1.2 -0.78,2.5 -0.95,3.91 h 17.18 v -0.84 c 0,-1.24 -0.16,-2.41 -0.49,-3.5 -0.32,-1.09 -0.83,-2.05 -1.5,-2.87 -0.68,-0.82 -1.53,-1.47 -2.57,-1.93 -1.03,-0.47 -2.25,-0.71 -3.66,-0.71 z"
   id="path98"
   inkscape:connector-curvature="0"
   style="fill:#006c66" />
		</g>
		<g
   id="Bodoni_Book_00000117646036026154092570000017575301022979552394_"
   class="st5"
   style="opacity:0.45">
			<path
   class="st0"
   d="m 152.69,64.01 c -0.71,3.31 -2.19,5.76 -4.43,7.34 -2.25,1.58 -4.93,2.38 -8.05,2.38 -1.04,0 -2.1,-0.15 -3.19,-0.46 -1.09,-0.31 -2.13,-0.73 -3.12,-1.28 -0.99,-0.54 -1.88,-1.18 -2.66,-1.91 -0.78,-0.73 -1.38,-1.5 -1.81,-2.3 -1.42,1.94 -3.2,3.42 -5.35,4.43 -2.15,1.02 -4.15,1.52 -5.99,1.52 -1.13,0 -2.2,-0.12 -3.19,-0.35 -0.99,-0.24 -1.87,-0.63 -2.62,-1.17 -0.76,-0.54 -1.36,-1.25 -1.81,-2.13 -0.45,-0.87 -0.67,-1.97 -0.67,-3.3 0.09,-3.31 1.73,-5.85 4.89,-7.62 3.17,-1.77 7.47,-2.66 12.91,-2.66 v -6.74 c 0,-0.85 -0.15,-1.55 -0.46,-2.09 -0.31,-0.54 -0.7,-0.98 -1.17,-1.31 -0.47,-0.33 -1.02,-0.57 -1.63,-0.71 -0.61,-0.14 -1.23,-0.21 -1.84,-0.21 -0.38,0 -0.93,0.04 -1.67,0.11 -0.73,0.07 -1.47,0.2 -2.2,0.39 -0.73,0.19 -1.37,0.45 -1.91,0.78 -0.54,0.33 -0.82,0.76 -0.82,1.28 0,0.14 0.11,0.28 0.32,0.43 0.21,0.14 0.46,0.32 0.74,0.53 0.28,0.21 0.53,0.51 0.74,0.89 0.21,0.38 0.32,0.85 0.32,1.42 0,0.9 -0.26,1.62 -0.78,2.16 -0.52,0.54 -1.23,0.82 -2.13,0.82 -0.95,0 -1.68,-0.32 -2.2,-0.96 -0.52,-0.64 -0.78,-1.45 -0.78,-2.45 0,-0.61 0.2,-1.32 0.6,-2.13 0.4,-0.8 1.04,-1.55 1.91,-2.23 0.87,-0.68 2.03,-1.26 3.47,-1.74 1.44,-0.47 3.23,-0.71 5.35,-0.71 0.61,0 1.29,0.02 2.02,0.07 0.73,0.05 1.48,0.18 2.23,0.39 0.76,0.21 1.48,0.53 2.16,0.96 0.68,0.43 1.29,0.99 1.81,1.7 1.51,-1.18 2.86,-2.01 4.04,-2.48 1.18,-0.47 2.6,-0.68 4.25,-0.64 1.8,0 3.47,0.3 5.04,0.89 1.56,0.59 2.91,1.43 4.04,2.52 1.13,1.09 2.03,2.41 2.69,3.97 0.66,1.56 0.99,3.31 0.99,5.25 h -19.78 v 2.91 c 0,1.75 0.07,3.4 0.21,4.96 0.14,1.56 0.5,2.92 1.06,4.08 0.57,1.16 1.41,2.07 2.52,2.73 1.11,0.66 2.63,0.99 4.57,0.99 0.99,0 2.02,-0.21 3.08,-0.64 1.06,-0.43 2.04,-1 2.94,-1.74 0.9,-0.73 1.69,-1.61 2.38,-2.62 0.68,-1.02 1.15,-2.12 1.38,-3.3 h 1.6 z m -25.1,-6.03 c -1.13,0 -2.42,0.08 -3.86,0.25 -1.44,0.17 -2.8,0.51 -4.08,1.03 -1.28,0.52 -2.35,1.27 -3.23,2.23 -0.88,0.97 -1.31,2.26 -1.31,3.86 0,1.75 0.5,3.12 1.49,4.11 0.99,0.99 2.32,1.49 3.97,1.49 1.13,0 2.12,-0.15 2.94,-0.46 0.83,-0.31 1.67,-0.84 2.52,-1.6 0.28,-0.28 0.61,-0.7 0.99,-1.24 0.38,-0.54 0.57,-1.57 0.57,-3.08 z m 18.72,-3.4 v -2.41 c 0,-1.28 -0.18,-2.34 -0.53,-3.19 -0.35,-0.85 -0.83,-1.55 -1.42,-2.09 -0.59,-0.54 -1.28,-0.92 -2.06,-1.13 -0.78,-0.21 -1.62,-0.32 -2.52,-0.32 -1.09,0 -2,0.21 -2.73,0.64 -0.73,0.43 -1.34,0.91 -1.81,1.45 -0.47,0.54 -0.81,1.05 -1.03,1.52 -0.21,0.47 -0.34,0.76 -0.39,0.85 -0.24,0.66 -0.4,1.38 -0.5,2.16 -0.1,0.78 -0.17,1.62 -0.21,2.52 z"
   id="path101"
   inkscape:connector-curvature="0"
   style="fill:#006c66" />
		</g>
	</g>
	<path
   class="st0"
   d="m 130.6,24.56 c -18.2,0 -33.01,14.81 -33.01,33.01 0,18.2 14.81,33.01 33.01,33.01 18.2,0 33.01,-14.81 33.01,-33.01 0,-18.2 -14.81,-33.01 -33.01,-33.01 z m 0,65.1 c -17.7,0 -32.09,-14.4 -32.09,-32.09 0,-17.69 14.39,-32.09 32.09,-32.09 17.69,0 32.09,14.4 32.09,32.09 0,17.7 -14.4,32.09 -32.09,32.09 z"
   id="path106"
   inkscape:connector-curvature="0"
   style="fill:#006c66" />
</g>
<rect
   id="Trenner"
   x="-152.92"
   y="1.7734792"
   class="st0"
   width="0.57999998"
   height="66.019997"
   style="fill:#006c66" />
<g
   id="Minerva"
   transform="matrix(1.4285714,0,0,1.4285714,-235.09,-22.766522)">
	<path
   class="st0"
   d="m 24.14,17.17 c -12.76,0 -23.11,10.35 -23.11,23.11 0,12.76 10.35,23.11 23.11,23.11 12.76,0 23.11,-10.35 23.11,-23.11 C 47.23,27.53 36.9,17.19 24.14,17.17 Z m 0,45.58 C 11.73,62.75 1.67,52.69 1.67,40.28 1.67,27.87 11.73,17.81 24.14,17.81 36.55,17.81 46.61,27.87 46.61,40.28 46.6,52.69 36.54,62.74 24.14,62.75 Z"
   id="path110"
   inkscape:connector-curvature="0"
   style="fill:#006c66" />
	<path
   class="st0"
   d="m 37.7,38.52 c -0.31,-0.68 -0.11,-1.12 -0.2,-1.61 -0.09,-0.49 -0.59,-1.54 -0.95,-2.38 -0.15,-0.37 0.84,-0.29 0.09,-1.67 0,-0.04 1.03,-0.44 0,-1.21 -0.52,-0.41 -0.97,-0.91 -1.32,-1.47 -0.07,-0.08 -0.07,-0.2 0,-0.29 0.59,-0.53 0.62,-1.28 -0.02,-1.65 -0.64,-0.37 -0.99,0 -1.47,0.31 -0.15,0.11 -0.24,0.18 -0.42,0.11 l -0.4,-0.26 c 0.59,-0.57 0.73,-1.14 0.68,-1.23 -0.05,-0.09 -1.01,-0.29 -2.24,0.22 l -0.09,-0.07 c 0.51,-0.86 0.22,-1.47 0.2,-1.52 h -0.02 c 0.8,-1.08 1.71,-2.06 2.73,-2.93 h 0.02 c 0.04,-0.07 0.07,-0.13 -0.04,-0.2 l -0.22,-0.13 c -9.82,-5.45 -22.2,-1.9 -27.65,7.93 -1.66,3 -2.54,6.38 -2.55,9.81 0,6.49 3.3,12.74 8.67,16.64 0.19,0.14 0.4,0.26 0.62,0.35 0.08,0.03 0.18,0.01 0.24,-0.04 l 0.07,-0.11 c 0.05,-0.05 0.07,-0.11 0.07,-0.18 0,-0.15 -0.2,-0.29 -0.46,-0.66 -0.66,-0.98 -1.02,-2.14 -1.03,-3.32 -0.02,-1.09 0.33,-2.15 0.99,-3.02 0.81,0.86 2.57,2.4 2.53,3.83 -0.04,1.43 -1.52,1.5 -1.19,2.68 0.2,0.75 0.75,0.44 0.86,1.01 0.15,0.97 1.47,1.61 2.05,1.52 0.15,-0.02 0.26,0.09 0.53,0.37 0.26,0.29 1.36,0.35 1.8,0.26 0.44,-0.09 0.9,0.31 1.76,0.2 0.86,-0.11 1.34,-0.2 1.8,-0.2 0.46,0 4.95,-0.07 7.92,0.4 0.53,0.09 0.68,-0.15 0.46,-0.55 -1.08,-1.89 -1.23,-3.48 -0.62,-5.5 1.1,0.09 2.68,0.37 4.75,-0.88 0.71,-0.45 1.14,-1.25 1.12,-2.09 -0.02,-0.46 -0.22,-1.03 -0.11,-1.47 0.11,-0.44 0.29,-0.59 0.46,-0.7 0.79,-0.57 0.22,-1.01 0.09,-1.06 0.34,-0.22 0.45,-0.66 0.24,-1.01 -0.15,-0.15 -0.59,-1.36 -0.09,-1.61 0.51,-0.24 1.17,-0.4 1.78,-0.68 0.51,-0.21 0.75,-0.79 0.54,-1.29 0,-0.01 -0.01,-0.02 -0.01,-0.03 -0.3,-0.79 -1.93,-4.53 -1.97,-4.62 z M 15.27,56.59 c -0.15,0.04 -0.64,0.07 -0.53,-0.59 0.11,-0.66 0.51,-0.57 0.73,-0.35 0.22,0.22 -0.16,0.61 -0.2,0.94 z M 34.42,28.88 c 0.26,-0.18 0.55,-0.24 0.73,-0.09 0.57,0.57 -0.64,0.9 -0.4,1.34 0.43,0.71 0.99,1.34 1.65,1.85 0.26,0.22 0.31,0.68 -0.73,0.9 -1.03,0.22 -5.19,1.3 -7.39,3.63 -2.75,2.91 -4.49,6.67 -4.73,6.16 -0.24,-0.51 -0.79,-0.62 -0.7,-0.77 3.93,-6.77 10.11,-12.11 11.57,-13.02 z m 1.8,4.78 c -0.22,0.64 -2,1.21 -1.91,0.77 0.09,-0.44 0,-0.48 0.13,-0.51 0.13,-0.02 0.77,-0.24 1.65,-0.46 0.09,-0.02 0.2,0.02 0.13,0.2 z m -4.53,1.17 c -0.04,-0.26 1.87,-0.9 1.94,-0.73 0.07,0.17 -0.4,1.32 -1.03,1.54 -0.64,0.22 -1.03,0.2 -1.01,0.09 0.08,-0.29 0.12,-0.6 0.1,-0.9 z m -4.47,10.03 c -0.88,0.55 -1.36,-0.48 -1.5,-0.68 -0.14,-0.2 -0.18,-0.45 -0.11,-0.68 0.07,-0.31 0.11,-0.73 -0.09,-2.05 -0.09,-0.59 1.1,-2.02 1.39,-2.29 0.29,-0.27 0.68,0.13 0.7,0.57 0.07,0.79 -0.4,1.23 -0.86,1.58 -0.46,0.35 -0.68,0.97 -0.57,1.12 0.17,0.06 0.36,-0.03 0.42,-0.2 0.33,-0.73 1.32,-1.08 1.47,-1.47 0.15,-0.39 0.07,-0.97 0.04,-1.23 -0.02,-0.26 0.2,-0.26 0.35,-0.24 0.15,0.02 0.31,0.31 0.4,0.59 0.64,1.65 -0.95,2.64 -1.21,3.04 -0.25,0.4 0.25,1.52 -0.43,1.94 z m 1.34,-6.4 c -0.48,0.33 -1.17,-0.11 -1.03,-0.31 0.69,-0.96 1.55,-1.78 2.53,-2.42 0.75,-0.46 0.84,-0.51 0.88,-0.24 0.03,0.6 -0.17,1.2 -0.57,1.65 -0.51,0.55 -1.01,0.51 -1.28,0.57 -0.26,0.06 -0.18,0.5 -0.53,0.75 z m -4.25,5.63 C 24.09,44.05 24,43.63 24.05,43.45 c 0.04,-0.18 0.68,-1.14 0.88,-1.41 0.05,-0.04 0.12,-0.03 0.15,0.02 0.01,0.01 0.02,0.03 0.02,0.05 0.14,0.9 0.01,2.16 -0.79,1.98 z M 31.4,27.78 c 0.52,-0.24 1.08,-0.36 1.65,-0.35 0.18,0.02 -0.42,1.06 -1.45,1.5 -1.03,0.44 -1.87,0.55 -1.96,0.51 -0.09,-0.05 0.9,-1.28 1.76,-1.66 z M 13.07,45.01 c -0.33,-0.37 -0.62,-0.57 -0.64,-0.55 -0.4,0.59 -0.67,1.26 -0.79,1.96 -1,-1.9 -1.57,-4 -1.65,-6.14 -0.31,-7.79 6.23,-14.06 14.2,-14.04 1.69,0 3.37,0.34 4.93,1.01 -0.33,0.45 -0.6,0.94 -0.81,1.45 0,-0.42 -0.11,-0.75 -0.09,-1.01 0.02,-0.26 -1.12,0.2 -2.13,1.83 -0.22,0.36 -0.38,0.76 -0.48,1.17 -0.02,-0.62 -0.15,-1.08 -0.2,-1.08 -0.85,0.37 -1.53,1.07 -1.87,1.94 -0.1,0.24 -0.18,0.49 -0.24,0.75 -0.04,-0.42 -0.15,-0.7 -0.2,-0.7 -0.05,0 -1.3,0.51 -1.89,1.96 -0.13,0.32 -0.21,0.66 -0.24,1.01 -0.11,-0.51 -0.31,-0.81 -0.37,-0.75 -0.42,0.53 -1.25,0.77 -1.67,2.11 -0.1,0.3 -0.15,0.61 -0.15,0.92 -0.18,-0.44 -0.44,-0.7 -0.51,-0.7 -0.07,0 -1.34,1.21 -1.54,2.4 -0.06,0.42 -0.05,0.86 0.04,1.28 -0.24,-0.4 -0.55,-0.66 -0.68,-1.06 -0.2,0.11 -1.25,1.1 -1.28,2.35 -0.02,0.45 0.03,0.91 0.15,1.34 -0.35,-0.64 -0.84,-0.92 -0.9,-0.9 -0.07,0.02 -0.88,0.9 -1.06,2.44 -0.06,0.34 -0.03,0.69 0.07,1.01 z M 29.38,27.47 c 0.62,-0.75 1.67,-1.34 1.8,-1.28 0.13,0.07 -0.18,1.23 -0.86,1.89 -0.68,0.66 -1.78,1.36 -1.89,1.34 -0.11,-0.02 0.37,-1.29 0.95,-1.95 z m -2.05,2.87 c -0.5,0.38 -0.92,0.86 -1.23,1.41 -0.11,0.2 -0.42,-1.1 0.37,-2.33 0.48,-0.77 1.45,-1.45 1.43,-1.36 -0.02,0.07 0.46,1.44 -0.57,2.28 z m -2.22,1.65 c -0.75,1.12 -0.79,0.73 -1.61,1.83 -0.04,0.04 -0.04,-1.43 0.24,-2.07 0.46,-1.03 1.25,-1.63 1.36,-1.65 0.12,-0.03 0.42,1.27 0.01,1.89 z m -2.45,2.22 c -0.37,0.66 -0.73,0.51 -1.36,1.47 -0.07,0.09 -0.24,-0.79 0.15,-2 0.23,-0.65 0.69,-1.19 1.3,-1.52 0.13,-0.02 0.38,1.26 -0.09,2.05 z m -2.26,2.35 c -0.4,0.86 -0.64,0.88 -1.1,1.41 -0.07,0.09 -0.4,-0.81 -0.09,-1.94 0.31,-1.12 0.88,-1.23 1.17,-1.54 0.29,-0.31 0.44,1.17 0.02,2.07 z m -1.85,1.46 c 0,0.22 -0.03,0.45 -0.09,0.66 -0.29,0.95 -0.86,1.36 -1.17,1.78 -0.2,-0.4 -0.32,-0.83 -0.35,-1.28 0.02,-0.95 0.43,-1.84 1.14,-2.46 0.18,0 0.47,0.7 0.47,1.3 z m -1.87,2.81 c -0.03,0.91 -0.43,1.78 -1.12,2.38 -0.29,-0.51 -0.45,-1.09 -0.48,-1.67 -0.04,-1.39 0.53,-1.87 0.79,-2.13 0.1,0.39 0.81,0.7 0.81,1.42 z m -2.67,1.39 c 0.4,0.2 0.86,0.75 0.9,1.8 0.04,1.06 -0.7,1.91 -1.01,2.07 -0.2,-0.81 -0.57,-0.97 -0.57,-1.76 0.02,-0.75 0.26,-1.49 0.68,-2.11 z m 1.61,2.75 c 1.01,-0.44 2.11,-0.37 2.16,-0.33 0.04,0.04 -0.33,1.3 -1.3,1.8 -0.97,0.5 -2.09,0.59 -2.2,0.46 -0.11,-0.12 0.33,-1.49 1.34,-1.93 z m -0.09,-0.75 c 0.07,-0.33 0.66,-1.43 1.56,-1.83 v 0 c 0.65,-0.29 1.36,-0.4 2.07,-0.33 0.11,0.04 -0.37,1.23 -1.28,1.67 -0.91,0.44 -1.42,0.21 -2.35,0.49 z m 1.52,-2.59 c 0.04,-0.09 0.77,-1.41 1.63,-1.8 0.61,-0.27 1.29,-0.38 1.96,-0.31 0.07,0.02 -0.4,1.19 -1.36,1.67 -0.96,0.48 -2.27,0.55 -2.23,0.44 z m 1.96,-2.62 c -0.07,-0.04 0.97,-1.41 1.85,-1.83 0.58,-0.24 1.22,-0.32 1.85,-0.22 0.07,0.07 -0.42,1.21 -1.43,1.65 -0.72,0.3 -1.49,0.43 -2.27,0.4 z m 2.36,-2.6 c -0.04,-0.04 0.75,-1.39 1.63,-1.74 0.88,-0.35 1.69,-0.02 1.96,0 0.26,0.02 -0.29,0.99 -1.45,1.41 -1.18,0.42 -1.99,0.4 -2.14,0.33 z m 2.64,-2.51 c 0.02,-0.07 0.9,-1.3 1.78,-1.61 0.66,-0.21 1.36,-0.22 2.02,-0.04 0.11,0.04 -0.62,1.1 -1.69,1.43 -1.08,0.33 -2.14,0.29 -2.11,0.22 z m 2.66,-2.18 c -0.11,-0.07 0.95,-1.25 1.8,-1.58 0.58,-0.22 1.21,-0.29 1.83,-0.22 0.07,0.04 -0.55,1.08 -1.56,1.47 -1.01,0.4 -1.94,0.42 -2.07,0.33 z M 12.08,55.75 C 7.33,51.96 4.47,46.24 4.47,40.28 4.45,29.43 13.23,20.62 24.09,20.6 c 3.19,0 6.34,0.77 9.16,2.25 0.05,0.02 0.07,0.07 0.05,0.11 -0.01,0.02 -0.02,0.03 -0.03,0.04 -0.81,0.78 -1.56,1.62 -2.24,2.51 -2.15,-1.02 -4.51,-1.54 -6.89,-1.54 -9,0.02 -16.28,7.31 -16.31,16.31 -0.04,3.9 1.37,7.68 3.94,10.61 -0.28,0.65 -0.43,1.36 -0.42,2.07 0,0.98 0.25,1.94 0.73,2.79 z M 12.12,50.3 H 12.1 C 9.73,47.5 8.45,43.95 8.49,40.29 8.5,31.65 15.5,24.65 24.14,24.64 c 2.25,-0.01 4.47,0.47 6.51,1.41 -0.32,0.16 -0.62,0.35 -0.9,0.57 -1.77,-0.76 -3.68,-1.14 -5.61,-1.12 -8.16,0.01 -14.78,6.63 -14.79,14.79 0,3.54 1.1,6.65 3.26,9.24 -0.11,0.19 -0.29,0.46 -0.49,0.77 z m 0.77,-1.24 C 12.6,48.8 11.99,48.11 11.92,47.23 V 47.1 c 0,-0.95 0.42,-1.89 0.53,-1.98 0.11,-0.09 1.17,0.73 1.19,1.91 0,0.75 -0.27,1.47 -0.75,2.03 z m 1.76,-1.58 c 0.86,-0.4 2.11,-0.31 2.05,-0.24 -0.06,0.07 -0.4,1.28 -1.36,1.76 -0.58,0.33 -1.26,0.43 -1.91,0.29 0.5,-0.58 0.39,-1.41 1.22,-1.81 z m 1.15,10.23 c -0.13,-0.59 -0.09,-1.39 0.11,-1.61 0.2,-0.22 1.08,-0.26 1.1,-0.02 0.02,0.24 -0.24,1.19 0.07,2.24 -0.07,0.16 -1.02,0.1 -1.28,-0.61 z m 0.06,-2.44 c -0.07,-0.44 0.35,-0.86 0.35,-1.8 0,-0.95 -1.45,-2.77 -2.44,-3.81 0.6,-0.02 1.19,-0.16 1.74,-0.42 1.45,-0.68 1.74,-2.22 1.78,-2.29 -0.27,-0.08 -0.55,-0.11 -0.84,-0.09 l 0.18,-0.09 c 1.41,-0.77 1.78,-2.42 1.72,-2.44 -0.29,-0.06 -0.59,-0.08 -0.88,-0.07 l 0.44,-0.15 c 1.5,-0.59 1.91,-2.27 1.87,-2.33 -0.25,-0.06 -0.51,-0.09 -0.77,-0.09 l 0.42,-0.18 c 1.36,-0.68 1.85,-2.22 1.78,-2.27 -0.24,-0.07 -0.48,-0.1 -0.73,-0.09 0.34,-0.08 0.67,-0.19 0.99,-0.33 1.47,-0.64 1.96,-2.05 1.89,-2.11 -0.21,-0.07 -0.44,-0.1 -0.66,-0.11 0.33,-0.07 0.65,-0.17 0.97,-0.29 1.45,-0.48 2.02,-1.87 1.94,-1.89 L 24.8,34.24 c 0.5,-0.03 0.98,-0.12 1.45,-0.29 1.56,-0.53 2.11,-1.47 2.16,-1.89 -0.15,-0.09 -0.33,-0.15 -0.51,-0.18 0.35,-0.06 0.7,-0.15 1.03,-0.26 1.45,-0.59 2.07,-2.05 2.11,-2.16 0.29,-0.1 0.58,-0.21 0.86,-0.35 l 0.42,-0.2 0.35,0.24 c 0.22,0.13 0.31,0.18 0.2,0.26 -5,4.25 -8.74,9.64 -10.37,12.24 -0.04,0.09 -0.13,0.07 -0.29,0.07 -1.74,-0.13 -2.73,1.96 -1.96,3.92 -0.09,0.4 -0.92,1.17 -0.99,1.21 -0.07,0.04 -0.22,0.31 0.07,0.29 0.29,-0.02 0.92,-0.7 1.19,-0.99 0.09,0.13 0.48,0.44 0.29,0.62 -0.91,0.91 -1.94,1.68 -3.06,2.31 -0.57,0.26 0.92,0.46 3.46,-1.83 0.15,-0.13 0.33,0.53 0.55,0.81 -0.44,1.43 0.64,4.2 0.46,5.06 -0.01,0.33 -0.28,0.59 -0.62,0.59 -2.51,0.07 -2.75,-0.07 -4.03,0.31 -0.59,0.18 -0.44,0.57 -0.02,0.46 0.42,-0.11 1.01,-0.33 3.72,-0.15 0.68,0.02 1.43,-0.13 1.43,-1.25 0,-1.12 -0.79,-4.05 -0.53,-4.47 0.22,0.17 0.49,0.28 0.77,0.31 -0.04,0.99 1.54,4.18 0.84,5.94 -0.26,0.66 -1.41,0.59 -3.39,0.4 -3.36,-0.32 -4.46,0.41 -4.53,0.01 z m 7.73,2.18 c -1.3,0.44 -1.83,-1.08 -1.61,-1.41 0.22,-0.33 0.97,0.22 1.61,-0.2 0.64,-0.42 0.77,1.35 0,1.61 z m -5.94,0.95 c -0.18,-0.81 -0.24,-2.2 0.09,-2.53 0.33,-0.33 1.08,-0.2 1.06,0.04 -0.07,0.95 -0.46,2.02 0.26,3.1 0.28,0.42 -1.15,0.49 -1.41,-0.61 z m 2.5,0.92 c -0.35,-0.09 -1.32,-1.63 -0.53,-3.48 0.07,-0.18 1.28,-0.07 1.5,0 0.22,0.07 -0.18,1.5 1.5,2.16 0.15,0.07 -0.02,1.94 -2.47,1.32 z m 10.39,-5.13 c -0.55,1.94 -0.84,2.71 0,4.82 0.11,0.29 0.2,0.51 -0.04,0.46 -1.69,-0.31 -2.07,-0.57 -7.42,-0.13 -0.37,0.04 0.13,-0.75 0.07,-1.28 0.48,-0.07 1.28,-0.29 1.43,-1.08 0.15,-0.79 -0.46,-1.67 -0.4,-1.8 0.77,-1.47 -0.04,-3.1 -0.68,-5.85 -0.07,-0.26 0.09,-0.37 0.2,-0.24 3.43,3.72 5.61,4.45 6.8,4.8 0.11,0.04 0.09,0.17 0.04,0.3 z m 8.78,-10.14 c -0.73,0.64 -1.83,0.68 -2.27,1.08 -0.44,0.4 -0.33,0.55 -0.09,1.14 0.24,0.59 0.24,0.37 -0.24,0.51 -0.48,0.13 -0.9,1.28 -1.94,1.08 -0.4,-0.07 -0.11,0.18 0.04,0.2 0.57,0.07 0.81,-0.11 1.01,-0.31 0.2,-0.2 0.48,-0.53 0.79,-0.64 0.31,-0.11 0.64,-0.11 0.66,0.13 0.02,0.24 -0.42,0.46 -0.59,0.55 0.22,0.11 0.86,0.42 0.31,0.79 -0.55,0.37 -1.01,-0.11 -1.08,-0.15 -0.07,-0.04 -0.37,-0.04 -0.29,0.07 0.09,0.11 1.14,0.29 0.99,0.48 -0.77,1.03 -0.13,1.65 -0.37,2.71 -0.24,1.06 -1.69,1.65 -2.82,1.85 -3.83,0.68 -7.55,-2.55 -9.73,-5.02 0.2,-0.46 0.18,-1.06 -0.02,-0.84 -0.2,0.22 -0.15,0.53 -0.62,0.64 -0.86,0.22 -1.25,-1.3 -1.52,-1.56 -1.06,-1.03 -1.47,-2.51 -0.86,-3.81 0.61,-1.3 1.98,-1.03 2.51,-0.24 0.53,0.79 0.37,1.54 0.75,1.83 0.37,0.29 1.06,0.04 1.19,0 0.13,-0.04 0.37,0.95 1.76,0.9 1.39,-0.04 1.3,-2.35 1.52,-2.55 1.89,-1.85 0.92,-3.5 0.57,-3.87 -0.35,-0.37 0.22,-0.79 0.33,-0.81 0.93,-0.19 1.7,-0.82 2.07,-1.69 0,0 1.85,-0.04 2.51,-1.36 0.18,-0.35 0.73,0.33 1.96,-0.64 0.06,-0.08 0.17,-0.09 0.25,-0.03 0.03,0.02 0.05,0.06 0.06,0.09 0.81,1.96 1.14,2.49 1.08,3.48 -0.06,0.99 1.91,4.73 2.07,5.08 0.17,0.33 0.19,0.73 0.01,0.91 z"
   id="path112"
   inkscape:connector-curvature="0"
   style="fill:#006c66" />
	<path
   class="st0"
   d="m 34.88,36.98 c -1.08,0.04 -2.33,1.36 -2.73,1.54 -0.4,0.18 -0.29,0.33 -0.04,0.24 0.24,-0.09 1.3,-1.03 2.35,-1.41 1.06,-0.37 0.79,0.4 1.1,0.35 0.31,-0.04 -0.07,-0.74 -0.68,-0.72 z"
   id="path114"
   inkscape:connector-curvature="0"
   style="fill:#006c66" />
	<path
   class="st0"
   d="m 35.12,38.04 c -0.09,0.02 0.09,0.48 -0.37,0.51 -1.01,0.07 -1.83,1.03 -2.44,1.32 -0.26,0.15 -0.54,0.25 -0.84,0.31 -0.04,0.01 -0.06,0.04 -0.06,0.08 0,0.04 0.04,0.06 0.08,0.06 2.57,0.35 3.57,0.24 3.59,0.15 0.02,-0.09 -0.13,-0.26 -0.09,-0.37 0.11,-0.4 0.11,-0.81 0.02,-1.21 -0.04,-0.18 0.4,-0.07 0.4,-0.29 0,-0.22 -0.14,-0.58 -0.29,-0.56 z m -0.4,2.05 c -0.04,0.2 -1.21,0.11 -1.83,0.04 -0.15,0 -0.4,-0.02 0.07,-0.31 0.46,-0.29 0.9,-0.62 1.58,-0.75 0.08,0 0.16,0.05 0.18,0.13 0.06,0.3 0.06,0.59 0,0.89 z"
   id="path116"
   inkscape:connector-curvature="0"
   style="fill:#006c66" />
	<path
   class="st0"
   d="m 38.09,43.76 c -0.2,0 -0.99,0.35 -1.3,0.55 -0.31,0.2 -0.97,0.59 -0.92,-0.18 0.02,-0.29 0.2,-0.97 0.2,-1.17 0,-0.2 -0.22,-0.15 -0.24,0 -0.02,0.39 -0.07,0.78 -0.15,1.17 -0.09,0.4 0.26,0.88 0.79,0.59 0.53,-0.29 1.06,-0.64 1.61,-0.75 0.12,-0.01 0.14,-0.21 0.01,-0.21 z"
   id="path118"
   inkscape:connector-curvature="0"
   style="fill:#006c66" />
	<path
   class="st0"
   d="m 23.15,46.58 c -0.15,-0.07 -0.11,0.26 -0.31,0.22 -0.2,-0.04 -0.04,-0.29 -0.4,-0.66 -0.35,-0.37 -0.62,-0.26 -0.95,-0.79 -0.33,-0.53 -0.07,-2.64 0.68,-2.38 0.75,0.26 0.35,1.1 0.22,1.76 -0.13,0.66 0.55,0.62 0.62,0.46 0.07,-0.15 -0.24,-0.2 -0.31,-0.42 -0.07,-0.22 0.77,-1.67 -0.4,-2.07 -0.84,-0.29 -1.41,0.79 -1.3,1.96 0.03,0.7 0.47,1.31 1.12,1.56 0.51,0.18 0.13,0.88 0.81,0.88 0.33,0.01 0.39,-0.46 0.22,-0.52 z"
   id="path120"
   inkscape:connector-curvature="0"
   style="fill:#006c66" />
	<path
   class="st0"
   d="m 29.93,24.53 c 0.04,0.02 0.07,0 0.11,-0.02 l 1.43,-1.83 c 0.02,-0.05 0,-0.1 -0.04,-0.13 l -0.24,-0.09 c -0.04,-0.02 -0.08,-0.01 -0.11,0.02 l -1.43,1.83 c -0.04,0.04 -0.02,0.11 0.04,0.13 z"
   id="path122"
   inkscape:connector-curvature="0"
   style="fill:#006c66" />
	<path
   class="st0"
   d="m 27.26,23.78 0.24,0.07 c 0.05,0 0.09,-0.02 0.11,-0.07 l 0.84,-2.07 c 0.02,-0.04 0.01,-0.1 -0.03,-0.12 -0.01,-0.01 -0.02,-0.01 -0.03,-0.01 l -0.26,-0.04 h -0.07 l -0.86,2.11 c -0.02,0.04 -0.01,0.1 0.03,0.12 0.01,0 0.02,0.01 0.03,0.01 z"
   id="path124"
   inkscape:connector-curvature="0"
   style="fill:#006c66" />
	<path
   class="st0"
   d="m 24.31,23.49 h 0.24 c 0.04,0.02 0.09,-0.02 0.09,-0.07 l 0.22,-2.2 c 0,-0.05 -0.04,-0.1 -0.09,-0.11 h -0.24 c -0.07,0 -0.09,0.04 -0.11,0.09 l -0.2,2.2 c 0.01,0.05 0.05,0.09 0.09,0.09 z"
   id="path126"
   inkscape:connector-curvature="0"
   style="fill:#006c66" />
	<path
   class="st0"
   d="m 21.45,23.71 0.24,-0.04 c 0.04,0 0.09,-0.04 0.07,-0.09 L 21.34,21.4 c 0,-0.04 -0.04,-0.09 -0.09,-0.07 h -0.26 c -0.04,0.02 -0.09,0.07 -0.07,0.11 l 0.42,2.18 c 0,0.07 0.05,0.09 0.11,0.09 z"
   id="path128"
   inkscape:connector-curvature="0"
   style="fill:#006c66" />
	<path
   class="st0"
   d="m 18.5,24.39 0.11,0.04 0.24,-0.09 c 0.05,-0.01 0.08,-0.05 0.08,-0.1 0,-0.01 -0.01,-0.02 -0.01,-0.03 L 17.91,22.23 C 17.89,22.19 17.84,22.17 17.8,22.19 l -0.22,0.07 c -0.05,0.01 -0.08,0.05 -0.08,0.1 0,0.01 0.01,0.02 0.01,0.03 z"
   id="path130"
   inkscape:connector-curvature="0"
   style="fill:#006c66" />
	<path
   class="st0"
   d="m 15.78,25.65 c 0.02,0.04 0.07,0.04 0.11,0.02 l 0.22,-0.13 c 0.04,-0.03 0.06,-0.08 0.03,-0.12 0,0 -0.01,-0.01 -0.01,-0.01 L 14.66,23.72 C 14.62,23.68 14.57,23.68 14.55,23.7 l -0.22,0.13 c -0.07,0.02 -0.07,0.09 -0.02,0.13 z"
   id="path132"
   inkscape:connector-curvature="0"
   style="fill:#006c66" />
	<path
   class="st0"
   d="m 13.22,27.45 c 0.04,0.02 0.09,0.02 0.11,-0.02 l 0.2,-0.15 c 0.04,-0.04 0.04,-0.11 0,-0.15 l -1.87,-1.3 H 11.55 L 11.35,26 c -0.04,0.04 -0.04,0.11 0,0.15 z"
   id="path134"
   inkscape:connector-curvature="0"
   style="fill:#006c66" />
	<path
   class="st0"
   d="m 11.02,29.74 c 0.04,0 0.07,-0.01 0.09,-0.04 l 0.18,-0.2 c 0.04,-0.04 0.02,-0.11 -0.04,-0.13 L 9.09,28.53 C 9.04,28.51 9,28.51 8.97,28.55 l -0.15,0.2 c -0.04,0.03 -0.04,0.09 -0.01,0.12 0.01,0.02 0.03,0.03 0.05,0.03 z"
   id="path136"
   inkscape:connector-curvature="0"
   style="fill:#006c66" />
	<path
   class="st0"
   d="m 6.93,32.1 2.31,0.33 c 0.04,0 0.09,-0.02 0.09,-0.07 L 9.46,32.14 C 9.48,32.1 9.47,32.04 9.43,32.02 9.42,32.01 9.41,32.01 9.4,32.01 L 7.09,31.68 6.98,31.72 C 6.95,31.8 6.92,31.89 6.87,31.96 6.85,32 6.86,32.06 6.9,32.08 c 0,0.01 0.02,0.01 0.03,0.02 z"
   id="path138"
   inkscape:connector-curvature="0"
   style="fill:#006c66" />
	<path
   class="st0"
   d="m 5.67,35.6 2.35,-0.22 c 0.04,0 0.07,-0.03 0.07,-0.07 v 0 C 8.13,35.23 8.15,35.15 8.18,35.07 8.2,35.03 8.19,34.97 8.15,34.95 8.13,34.94 8.11,34.94 8.09,34.94 l -2.38,0.22 -0.09,0.07 -0.07,0.26 c 0.01,0.06 0.06,0.13 0.12,0.11 z"
   id="path140"
   inkscape:connector-curvature="0"
   style="fill:#006c66" />
	<path
   class="st0"
   d="m 7.46,38.41 c 0,-0.09 0.02,-0.2 0.02,-0.29 0,-0.09 -0.04,-0.11 -0.11,-0.09 l -2.29,0.79 c -0.04,0.02 -0.07,0.04 -0.07,0.09 0,0.05 -0.02,0.18 -0.02,0.26 -0.01,0.05 0.03,0.09 0.07,0.1 0.02,0 0.04,0 0.06,-0.01 l 2.27,-0.79 c 0.04,0.01 0.07,-0.02 0.07,-0.06 z"
   id="path142"
   inkscape:connector-curvature="0"
   style="fill:#006c66" />
	<path
   class="st0"
   d="m 7.39,41.56 v -0.29 c -0.01,-0.06 -0.06,-0.1 -0.12,-0.1 -0.01,0 -0.02,0 -0.03,0.01 l -2.07,1.39 c -0.04,0 -0.04,0.04 -0.04,0.09 0,0.05 0.02,0.18 0.02,0.26 0.02,0.06 0.08,0.09 0.14,0.07 0.01,0 0.01,0 0.02,-0.01 L 7.38,41.62 C 7.39,41.6 7.41,41.58 7.39,41.56 Z"
   id="path144"
   inkscape:connector-curvature="0"
   style="fill:#006c66" />
	<path
   class="st0"
   d="M 7.92,44.68 7.85,44.4 C 7.84,44.35 7.8,44.32 7.75,44.33 7.73,44.33 7.71,44.34 7.7,44.36 L 6,46.23 c -0.02,0.02 -0.04,0.07 -0.02,0.09 0.02,0.02 0.07,0.18 0.09,0.26 0.01,0.05 0.05,0.08 0.1,0.07 0.02,0 0.04,-0.01 0.05,-0.03 l 1.67,-1.85 c 0.03,-0.02 0.03,-0.04 0.03,-0.09 z"
   id="path146"
   inkscape:connector-curvature="0"
   style="fill:#006c66" />
	<path
   class="st0"
   d="m 8.78,47.48 -1.19,2.27 c -0.02,0.02 0,0.07 0,0.09 l 0.15,0.26 c 0.03,0.04 0.08,0.05 0.12,0.02 0.01,-0.01 0.03,-0.02 0.03,-0.04 l 1.19,-2.24 c 0,-0.02 0.02,-0.04 0,-0.09 L 8.95,47.49 C 8.91,47.44 8.84,47.43 8.8,47.47 c -0.01,-0.01 -0.02,0 -0.02,0.01 z"
   id="path148"
   inkscape:connector-curvature="0"
   style="fill:#006c66" />
	<path
   class="st0"
   d="m 10.47,50.03 c -0.04,-0.07 -0.15,-0.04 -0.15,0.02 L 9.68,52.7 c -0.02,0.04 0,0.07 0,0.09 L 9.9,53 c 0.03,0.04 0.08,0.05 0.12,0.02 0.01,-0.01 0.03,-0.02 0.03,-0.04 l 0.62,-2.62 c 0.02,-0.02 0,-0.04 0,-0.07 z"
   id="path150"
   inkscape:connector-curvature="0"
   style="fill:#006c66" />
</g>
</svg>